<?xml version="1.0" encoding="UTF-8"?><svg id="Layer_1" xmlns="http://www.w3.org/2000/svg" viewBox="0 0 300.42 489"><defs><style>.cls-1{fill:#cfffe5;stroke:#cfffe5;stroke-miterlimit:10;}</style></defs><path class="cls-1" d="M199.92,9.16v.31c0,26.44-20.53,48.09-46.52,49.87-.35,.03-.69,.05-1.04,.07-.93,.05-1.87,.08-2.81,.08-27.62,0-50-22.39-50-50v-.19C63.11,22.29,33.16,48.98,15.92,83.16,7.58,99.69,2.2,117.98,.5,137.32V488.46c.55,.02,1.09,.04,1.65,.04,40.19,0,72.77-8.8,72.77-48.99v-158.96c21.28,12.31,45.87,19.54,72.1,20.04,.96,.03,1.93,.04,2.9,.04s1.94-.01,2.9-.04c81.5-1.55,147.1-68.09,147.1-149.96,0-65.31-41.74-120.87-100-141.47Zm-50,216.47c-41.42,0-75-33.58-75-75s32.41-73.82,72.82-74.97c.72-.02,1.45-.03,2.18-.03s1.46,0,2.18,.03c40.41,1.15,72.82,34.28,72.82,74.97s-33.58,75-75,75Z"/><ellipse class="cls-1" cx="282.71" cy="283.82" rx="17.18" ry="16.76"/><path class="cls-1" d="M150.09,.5c-19.98,0-39.03,3.95-56.44,11.08-1.24,5.24-3.73,9.9-6.39,14.68-1.8,3.23-6.3,2.97-8.3,.5-.82,.98-1.56,2.03-2.18,3.18-.22,.41-.5,.75-.8,1.05-1.38,3.2-5.41,3.61-7.76,1.78-3.69,12.77-10.33,25.03-17.65,35.53-2.24,3.22-5.93,2.89-7.88,.68-.91,1.72-1.8,3.41-2.61,5.1-1.43,3-4.4,3.09-6.58,1.69-.9,3.57-2.15,7.02-3.91,10.39-1.01,1.94-3.18,2.6-5.18,2.28-.87,1.7-1.77,3.4-2.69,5.08-.9,1.65-2.46,2.36-4.06,2.36-.56,1.16-1.12,2.3-1.71,3.42-.08,.16-.18,.28-.28,.42,.57,6.54,1.15,13.05,2.77,19.45,10.63,.07,21.27,.14,31.89-.04,3.6-.06,7.24-.19,10.89-.23,1.2-1.18,2.43-2.33,3.69-3.44,.09-.61,.3-1.21,.67-1.77,4.95-7.52,13.05-12.41,21.12-15.98,.81-.36,1.63-.7,2.44-1.04,.02-.06,.03-.11,.05-.17,2.53-7.01,7.83-11.51,13.83-15.6,.95-.64,2-.82,3-.68,1.61-.94,3.26-1.76,4.94-2.47,2.12-1.78,4.24-3.58,6.25-5.53,2.9-2.8,6.66-1.16,7.99,1.6,4.99-1.09,10.08-1.83,15.21-2.36,1-.52,1.99-1.05,2.98-1.6,2.07-1.15,4.33-.52,5.86,.86,6.47-.43,12.92-.68,19.2-1.02,3.15-.17,4.74,2.14,4.79,4.6,.12,.03,.23,.06,.35,.09,6.98-.61,14.88,1.34,19.32,6.84,1.17,1.45,1.92,2.96,2.31,4.47,3.18,2.66,6.18,5.55,8.98,8.63,5.8,.99,11.48,3.35,14.96,7.85,1.02,1.32,2,3.13,1.28,4.86-.3,.72-.66,1.39-1.07,2.03,0,.02,.01,.03,.02,.05,.39,.99,.25,2.03-.14,2.99,1.24,.74,2.43,1.57,3.53,2.49,1.59-2.53,4.99-3.78,7.38-.85,1.26,1.55,2.57,3.38,3.69,5.36,.44,.22,.86,.45,1.27,.7,.11,.07,.22,.15,.33,.22,4.12,1.2,7.54,4.78,8.4,9.23,.32,1.67,.19,3.25-.27,4.7,11.11,.31,22.21,.72,33.32,1.25,.57-.56,1.34-1,2.36-1.2,6.38-1.26,12.65-3.04,18.97-4.54C288.05,56.59,225.61,.5,150.09,.5Z"/></svg>